<?xml version="1.0"?>
<svg xmlns="http://www.w3.org/2000/svg" xmlns:xlink="http://www.w3.org/1999/xlink" version="1.1" id="Capa_1" x="0px" y="0px" viewBox="0 0 411.69 411.69" style="enable-background:new 0 0 411.69 411.69;" xml:space="preserve" width="512px" height="512px" class=""><g><link xmlns="" type="text/css" id="dark-mode" rel="stylesheet"/><style xmlns="" type="text/css" id="dark-mode-custom-style"/><path style="fill:#A4C9FF" d="M359.455,83.592c12.016,37.616,4.18,80.457-20.898,114.416  c-10.971,14.629-18.286,60.082-21.943,77.322c-1.567,7.837-3.135,16.196-4.18,25.078c-3.657,27.167-8.359,48.588-15.151,64.784  c-7.837,18.808-18.286,29.257-30.302,30.302c-0.522,0-1.567,0-2.09,0c-12.016,0-22.465-20.376-30.302-41.796l-22.988-74.188  c-1.567-4.18-7.314-4.18-8.882,0l-23.51,74.188c-7.837,21.42-17.763,41.796-30.302,41.796c-0.522,0-1.567,0-2.09,0  c-12.539-1.045-22.465-11.494-30.302-30.302c-6.792-15.673-12.016-37.616-15.151-64.784c-1.045-8.882-2.612-17.241-4.18-25.078  c-3.657-17.241-10.971-62.694-21.943-77.322c-1.045-1.567-2.612-3.657-3.657-5.224c-16.196-18.808-26.122-43.363-26.122-70.531  c0-25.6,8.882-48.588,22.988-66.873c0.522-0.522,0.522-1.045,1.045-1.567c6.269-7.837,14.106-15.151,22.465-20.898  s17.763-10.449,27.69-13.584c9.927-3.135,20.898-4.702,31.869-4.702c22.988,0,44.931,7.314,62.171,20.376  c17.763-9.404,51.722-22.465,91.951-9.404C330.72,33.437,350.573,54.857,359.455,83.592z" data-original="#4DCFE0" class="active-path" data-old_color="#4DCFE0"/><g>
	<path style="fill:#3762CC" d="M121.495,100.012L96.417,81.204c6.792-8.882,15.151-16.718,26.122-24.555l17.763,25.6   C132.466,87.996,126.197,93.743,121.495,100.012z" data-original="#3A2C51" class="" data-old_color="#3A2C51"/>
	<path style="fill:#3762CC" d="M266.981,411.167h-2.09c-22.988,0-36.049-27.69-44.931-52.245V358.4l-12.539-40.751L194.361,358.4   v0.522c-9.404,25.6-21.943,52.245-44.931,52.245h-2.09c-0.522,0-1.045,0-1.045,0c-18.286-1.567-32.914-15.151-43.363-39.706   c-7.314-17.241-13.061-40.751-16.196-68.963c-1.045-8.359-2.612-16.196-4.18-24.033c-0.522-2.612-1.045-6.269-2.09-10.449   c-3.135-15.151-9.927-51.2-17.241-60.604l-0.522-0.522c-0.522-0.522-1.045-1.567-1.567-2.09c-0.522-0.522-1.045-1.567-1.567-2.09   c-18.808-22.465-29.257-50.678-29.257-79.935c0-27.69,8.882-53.812,25.6-75.755c0.522-1.045,1.045-1.567,2.09-2.612   c7.314-8.882,16.196-17.241,25.6-23.51l0,0c9.927-6.792,20.376-12.016,31.869-15.673S139.504,0,152.043,0   c22.465,0,44.931,6.269,63.739,17.763c23.51-10.449,56.947-18.808,95.608-6.269c29.78,9.404,53.812,35.004,63.739,68.441   c13.584,42.318,4.702,90.384-23.51,128.522c-7.314,9.404-14.106,45.453-17.241,60.604c-1.045,4.18-1.567,7.837-2.09,10.449   c-1.567,7.314-3.135,15.151-4.18,23.51c-4.18,30.302-9.404,52.245-16.196,68.963c-13.061,30.824-30.824,38.661-43.363,39.706   C268.026,411.167,267.504,411.167,266.981,411.167z M265.936,379.82L265.936,379.82c5.224-1.045,11.494-8.359,16.718-20.898   c5.747-14.106,10.449-33.437,14.106-60.604c1.045-9.404,2.612-17.763,4.18-26.122c0.522-2.612,1.045-6.269,2.09-9.927   c5.747-30.824,12.016-59.559,22.988-73.665c21.943-29.78,29.257-67.396,18.286-100.31c-7.314-24.033-23.51-41.273-43.363-47.543   c-32.914-10.449-61.649-1.567-79.935,8.359c-5.225,2.612-12.016,2.09-16.718-1.567c-14.629-10.971-33.437-17.241-52.767-17.241   c-9.404,0-18.808,1.567-27.167,4.18c-8.359,2.612-16.196,6.792-23.51,11.494l0,0c-6.792,4.702-13.584,10.971-18.808,17.241   c-0.522,0.522-1.045,1.567-1.567,2.612c-12.539,16.718-19.331,36.049-19.331,56.947c0,21.943,7.837,43.363,22.465,60.082   c0.522,0.522,1.045,1.045,1.045,1.567c0.522,0.522,1.045,1.567,1.567,2.09c0.522,1.045,1.567,2.09,2.09,2.612   c10.449,14.106,16.718,42.841,22.465,73.143c0.522,3.657,1.567,7.314,2.09,9.927c1.567,8.359,3.135,17.241,4.18,26.645   c3.135,25.078,7.837,45.976,14.106,60.604c3.135,7.314,9.404,19.853,16.718,20.898l0,0c1.567-1.045,7.314-6.792,16.196-31.347   l23.51-73.665c0,0,0-0.522,0.522-0.522c3.135-7.837,10.449-13.061,19.331-13.061l0,0c8.359,0,16.196,5.224,19.331,13.061   c0,0.522,0,0.522,0.522,1.045l22.988,73.665C258.1,372.506,264.369,378.775,265.936,379.82z M57.479,44.408L57.479,44.408   L57.479,44.408z" data-original="#3A2C51" class="" data-old_color="#3A2C51"/>
</g></g> </svg>
