<svg height="512" viewBox="0 0 57 60" width="512" xmlns="http://www.w3.org/2000/svg"><g id="050---Lip-Filler" fill="none"><g id="Layer_4" transform="translate(1)"><path id="Shape" d="m52 17-10 12c-3.3683628 3.9436902-8.1528161 6.4041635-13.32 6.85l-7.44-7.44c-.7814829-.7814829-2.0485171-.7814829-2.83 0s-.7814829 2.0485171 0 2.83l4.57 4.57c-5.0417916-.5151226-9.6908665-2.9542752-12.98-6.81l-10-12c1.55501579.0541093 3.11169696-.0362786 4.65-.27 1.93 1.97 8.33 7.27 21.35 7.27s19.42-5.3 21.35-7.27c1.538303.2337214 3.0949842.3241093 4.65.27z" fill="#e8edfc"/><path id="Shape" d="m52 17c-1.5550158.0541093-3.111697-.0362786-4.65-.27-2.9427574-.3843706-5.7692927-1.3936039-8.29-2.96-.3660727-.2386554-.7198568-.4956495-1.06-.77-4.56-3.65-5.79-3.97-10.52-2.48-.9638621.3000035-1.9961379.3000035-2.96 0-4.73-1.49-5.96-1.17-10.52 2.48-.3401432.2743505-.6939273.5313446-1.06.77-2.5199908 1.5678809-5.34685666 2.5772323-8.29 2.96-1.53830304.2337214-3.09498421.3241093-4.65.27 7-5 6-7.33 12-13.33 4.04-4.04 8.99-2.64 11.79-1.3 1.3948603.68005 3.0251397.68005 4.42 0 2.8-1.34 7.75-2.74 11.79 1.3 6 6 5 8.33 12 13.33z" fill="#e8edfc"/><path id="Shape" d="m40 3.67c-2.0267185-2.10141501-4.9660165-3.05693988-7.841-2.549 1.8457917.30697218 3.5434319 1.20085459 4.841 2.549 5.994 5.994 5.028 8.33 12.005 13.324l-.005.006-10 12c-2.7612938 3.2854903-6.5471741 5.5470158-10.749 6.421l.429.429c5.1671839-.4458365 9.9516372-2.9063098 13.32-6.85l10-12c-7-5-6-7.33-12-13.33z" fill="#cad9fc"/><path id="Shape" d="m39.06 13.77c-.5679894.3293525-1.1676765.6007192-1.79.81-2.03.72-5.49 1.42-11.27 1.42-8.04 0-11.59-1.35-13.06-2.23.3660727-.2386554.7198568-.4956495 1.06-.77 4.56-3.65 5.79-3.97 10.52-2.48.9638621.3000035 1.9961379.3000035 2.96 0 .8013372-.2594232 1.6158023-.4763913 2.44-.65.13-.03.27-.05.4-.07 2.65-.43 4.19.41 7.68 3.2.3401432.2743505.6939273.5313446 1.06.77z" fill="#f5f5f5"/><path id="Shape" d="m39.06 13.77c-.5679894.3293525-1.1676765.6007192-1.79.81-.72-.52-1.54-.98-2.27-1.58-2.22-1.78-3.65-2.76-5.08-3.13.13-.03.27-.05.4-.07 2.65-.43 4.19.41 7.68 3.2.3401432.2743505.6939273.5313446 1.06.77z" fill="#cad9fc"/><path id="Shape" d="m47.35 16.73c-1.93 1.97-8.33 7.27-21.35 7.27s-19.42-5.3-21.35-7.27c2.94314334-.3827677 5.7700092-1.3921191 8.29-2.96 1.47.88 5.02 2.23 13.06 2.23s11.59-1.35 13.06-2.23c2.5207073 1.5663961 5.3472426 2.5756294 8.29 2.96z" fill="#a4c2f7"/><path id="Shape" d="m39.06 13.77c-.5334775.3092286-1.0949712.5673751-1.677.771 2.1843148 1.1123411 4.5390203 1.852179 6.967 2.189-1.85 1.892-7.85 6.841-19.85 7.232.5.016.984.038 1.5.038 13.02 0 19.42-5.3 21.35-7.27-2.9427574-.3843706-5.7692927-1.3936039-8.29-2.96z" fill="#7facfa"/><path id="Shape" d="m34.074 41.14-2.83 2.83-8.16-8.16-4.57-4.57c-.7814829-.7814829-.7814829-2.0485171 0-2.83s2.0485171-.7814829 2.83 0l7.44 7.44z" fill="#a4c2f7"/><path id="Shape" d="m42.46 45.38-1 1-6.08 6.08-4.24-8.49 2.83-2.83z" fill="#a4c2f7"/><path id="Shape" d="m42.46 45.38-1 1-8.49-4.24 1-1z" fill="#7facfa"/><path id="Shape" d="m53.66 59h-11.33c-.2621467-.0020603-.5132-.1060681-.7-.29l-6.25-6.25 7.08-7.08 11.9 11.91c.2871614.2848091.3744903.714552.2212679 1.0888524s-.5168238.6194518-.9212679.6211476z" fill="#e8edfc"/><path id="Shape" d="m54.36 57.29-11.9-11.91-1.5 1.5 10.4 10.41c.2871614.2848091.3744903.714552.2212679 1.0888524s-.5168238.6194518-.9212679.6211476h3c.4044441-.0016958.7680455-.2468472.9212679-.6211476s.0658935-.8040433-.2212679-1.0888524z" fill="#cad9fc"/></g><g id="Layer_3" fill="#fff" transform="translate(1)"><path id="Shape" d="m22.98 35.81c9.048 9.048 8.1 8.035 8.31 8.45l4.09 8.2 6.25 6.25c.386.386.524.29 3.7.29-.2621467-.0020603-.5132-.1060681-.7-.29l-6.25-6.25c-4.226-8.472-4.007-8.039-4.24-8.49l-8.16-8.16c-5.0417916-.5151226-9.6908665-2.9542752-12.98-6.81l-10-12c7.118-5.339 5.8-6.715 10.957-12.251 1.621-1.739 3.152-3.187 5.88-3.626-2.8734804-.50904697-5.8118089.44590042-7.837 2.547-2.28990832 2.37201199-4.34141416 4.96310574-6.125 7.736-1.63763725 2.1748306-3.62258012 4.0648341-5.875 5.594l10 12c3.2891335 3.8557248 7.9382084 6.2948774 12.98 6.81z"/><path id="Shape" d="m34.318 1.033c.272.018.546.042.821.086-.275-.044-.549-.069-.821-.086z"/><path id="Shape" d="m28.21 2.37c1.2408735-.61770177 2.5699787-1.03937218 3.94-1.25-2.0937557-.27101235-4.2217006.04039423-6.15.9 1.554.644 1.309.78 2.21.35z"/><path id="Shape" d="m33.394 1.017c.248-.007.5-.013.75 0-.253-.017-.502-.008-.75 0z"/><path id="Shape" d="m32.482 1.085c.226-.027.453-.053.684-.065-.231.012-.458.038-.684.065z"/></g><g id="Layer_2" transform="translate(0 -1)"><path id="Shape" d="m8.785 11.428-1.649-1.128c1.49287906-2.2876261 3.2213127-4.41255717 5.157-6.34l1.414 1.414c-1.8432197 1.84451564-3.4925065 3.8731183-4.922 6.054z" fill="#fff"/><g fill="#428dff"><path id="Shape" d="m10.336 8.629c-.55228475 0-1-.44771525-1-1s.44771525-1 1-1c.5522847 0 1 .44771525 1 1s-.4477153 1-1 1z"/><path id="Shape" d="m.236 18.637 10 12c3.372996 3.9587268 8.1155515 6.4989224 13.28 7.113l7.809 7.808c4.912 9.832 4.053 8.14 4.239 8.427.153.239-.656-.6 6.361 6.425.37403.3739677.8801018.5858785 1.409.59h11.322c.8087918-.0001727 1.5378681-.487455 1.847356-1.2346909.3094878-.7472359.1384598-1.6073206-.433356-2.1793091-13.026-13.032-11.824-11.862-12.081-12.027-.286-.186 1.407.674-8.427-4.239l-3.781-3.781c4.6802361-.8265252 8.9224039-3.2682134 11.988-6.9l10-12-.009-.007c.1815942-.2102461.265745-.4875151.2316384-.7632262s-.1832856-.5241162-.4106384-.6837738c-6.79-4.849-5.827-7.185-11.874-13.225-4.524-4.526-10.041-2.875-12.926-1.488-1.1250414.54238312-2.4359586.54238312-3.561 0-2.887-1.388-8.403-3.039-12.927 1.488-.3789722.39237889-.3735524 1.01608478.0121814 1.40181858.3857338.38573379 1.0094397.39115363 1.4018186.01218142 3.47-3.47 7.7-2.515 10.647-1.1 1.6715929.80901162 3.6214071.80901162 5.293 0 2.942-1.414 7.175-2.374 10.646 1.1 5.063 5.064 5.111 7.641 9.678 11.539-3.506-.307-7.648-1.461-10.346-3.694-4.825-3.861-6.431-4.231-11.447-2.655-.7671455.2390273-1.5888545.2390273-2.356 0-5.014-1.577-6.622-1.206-11.459 2.665-2.689 2.224-6.8 3.372-10.354 3.684 1.86249355-1.573981 3.47313786-3.4237264 4.776-5.485.28119738-.4544945.15531673-1.0497642-.28580185-1.3515117-.44111858-.30174762-1.0415355-.20330248-1.36319815.2235117-1.73751508 2.7371909-4.02486838 5.0834563-6.717 6.89l.009.013c-.22887553.1548574-.3807454.4000673-.4174179.673965s.04534169.5504225.2254179.760035zm44.636 30.575-1.682 1.681c-.3541623.3950525-.33815.9979298.0364831 1.3736257.3746332.375696.9774627.393416 1.3735169.0403743l1.682-1.681 1.418 1.415-1.68 1.68c-.3789722.3923789-.3735524 1.0160848.0121814 1.4018186s1.0094397.3911536 1.4018186.0121814l1.68-1.68 1.413 1.414-1.679 1.681c-.3789722.3923789-.3735524 1.0160848.0121814 1.4018186s1.0094397.3911536 1.4018186.0121814l1.679-1.68 2.715 2.716h-11.322l-5.534-5.542 5.658-5.658zm-3.1-2.555-5.115 5.113-3.3-6.6 1.809-1.809zm-8.213-4.514-1.414 1.414-12.024-12.023c-.3693233-.3938446-.3593222-1.0097448.0225937-1.3913906s.9978231-.3912112 1.3914063-.0216094zm.441-30.21c1.508077.6495316 2.8989923 1.5427985 4.117 2.644-1.3346791.4684041-2.7144233.7968349-4.117.98zm-6 .721c1.3135989-.3933516 2.6492505-.7088993 4-.945v4.083c-1.167.106-2.5.175-4 .2zm-6-.945c1.3507598.2360506 2.6864143.551599 4 .945v3.336c-1.5-.023-2.833-.092-4-.2zm-2 .225v3.623c-1.4025767-.1831651-2.7823209-.5115959-4.117-.98 1.2179811-1.1009769 2.608915-1.9939179 4.117-2.643zm-6.051 3.979c5.5 2.806 20.564 2.811 26.087.008 1.9075383 1.123101 3.9803688 1.9381263 6.142 2.415-9.47 7.582-28.871 7.606-38.366-.009 2.16267572-.4677425 4.2352244-1.2829833 6.137-2.414zm-8.649 2.87c10.075 9.661 33.323 9.672 43.408 0 .816.1 1.549.166 2.177.2l-8.654 10.377c-3.094817 3.621924-7.4558114 5.9254677-12.192 6.44l-7.089-7.09c-.8627142-.8443579-2.146-1.0925213-3.2613094-.6306761-1.1153093.4618452-1.8474686 1.5445965-1.8606906 2.7516761-.0021556.7960457.3143818 1.5598407.879 2.121l2.236 2.236c-3.5845242-.9519981-6.7881557-2.9864823-9.174-5.826l-8.648-10.38c.625-.032 1.366-.096 2.179-.199z"/><path id="Shape" d="m16 9c.3808256.00207881.7297741-.21233064.9-.553.687-1.385 3.057-1.447 3.1-1.447.5522847 0 1-.44771525 1-1s-.4477153-1-1-1c-.147 0-3.633.029-4.895 2.553-.1549383.31006162-.1382634.67824423.0440684.97303094.1823318.29478672.5043136.47413062.8509316.47396906z"/></g></g></g></svg>