<svg height="487pt" viewBox="-72 0 487 487.848" width="487pt" xmlns="http://www.w3.org/2000/svg"><path d="m213.113281 483.847656h-190.476562c-5.523438 0-10-4.476562-10-10v-22.171875c0-5.523437 4.476562-10 10-10h190.476562c5.519531 0 10 4.476563 10 10v22.171875c0 5.523438-4.480469 10-10 10zm0 0" fill="#4671c6"/><path d="m213.113281 487.847656h-190.476562c-7.71875 0-14-6.28125-14-14v-22.171875c0-7.71875 6.28125-14 14-14h190.476562c7.714844 0 14 6.28125 14 14v22.171875c0 7.71875-6.28125 14-14 14zm-190.476562-42.171875c-3.308594 0-6 2.691407-6 6v22.171875c0 3.308594 2.691406 6 6 6h190.476562c3.304688 0 6-2.691406 6-6v-22.171875c0-3.308593-2.695312-6-6-6zm0 0" fill="#3762cc"/><path d="m219.023438 340.640625v72.773437l-15.203126 39.683594c-.773437 2.011719 1.207032 3.992188 3.21875 3.21875l41.667969-15.960937h70.027344c11.015625 0 19.945313-8.929688 19.945313-19.945313v-79.769531c0-11.015625-8.929688-19.941406-19.945313-19.941406h-79.769531c-11.015625 0-19.941406 8.925781-19.941406 19.941406zm0 0" fill="#ffea92"/><path d="m206.152344 460.480469c-1.695313 0-3.355469-.660157-4.597656-1.902344-1.808594-1.808594-2.386719-4.523437-1.46875-6.914063l14.9375-38.988281v-72.035156c0-13.203125 10.738281-23.945313 23.941406-23.945313h79.773437c13.203125 0 23.945313 10.742188 23.945313 23.945313v79.769531c0 13.207032-10.742188 23.945313-23.945313 23.945313h-69.289062l-40.976563 15.699219c-.753906.289062-1.542968.425781-2.320312.425781zm32.8125-135.78125c-8.792969 0-15.945313 7.152343-15.945313 15.941406v72.777344c0 .488281-.089843.972656-.265625 1.433593l-13.992187 36.527344 38.515625-14.753906c.457031-.175781.941406-.265625 1.429687-.265625h70.027344c8.792969 0 15.945313-7.152344 15.945313-15.945313v-79.773437c0-8.789063-7.152344-15.941406-15.945313-15.941406zm-19.945313 88.714843h.019531zm0 0" fill="#3762cc"/><path d="m271.027344 420.050781c-4.882813-9.050781 2.949218-16.53125 12.136718-12.003906.621094.304687 1.128907.800781 1.429688 1.382813 4.195312 8.164062-1.925781 15.945312-11.898438 12.0625-.722656-.277344-1.320312-.796876-1.667968-1.441407zm1.875-26.917969-1.738282-54.691406c-.058593-1.863281 1.570313-3.402344 3.597657-3.402344h5.9375c2.027343 0 3.65625 1.539063 3.59375 3.402344l-1.734375 54.691406c-.058594 1.789063-1.652344 3.210938-3.59375 3.210938h-2.46875c-1.945313-.003906-3.539063-1.421875-3.59375-3.210938zm0 0" fill="#f9a7a7"/><path d="m57.429688 426.09375-18.976563 5.503906c-3.761719 1.089844-6.300781 4.140625-6.300781 7.578125 0 2.664063 2.496094 4.824219 5.578125 4.824219h65.886719l4.234374-2.761719-.6875-15.144531zm0 0" fill="#f9cfcf"/><path d="m103.617188 448h-65.886719c-5.28125 0-9.578125-3.957031-9.578125-8.824219 0-5.242187 3.695312-9.828125 9.191406-11.421875l18.972656-5.5c.363282-.109375.734375-.160156 1.113282-.160156h49.734374c2.136719 0 3.898438 1.683594 3.996094 3.816406l.6875 15.144532c.0625 1.417968-.628906 2.757812-1.8125 3.535156l-4.230468 2.761718c-.652344.421876-1.414063.648438-2.1875.648438zm-45.621094-17.90625-18.429688 5.34375c-2.039062.59375-3.414062 2.09375-3.414062 3.738281 0 .238281.554687.824219 1.578125.824219h64.699219l1.320312-.863281-.40625-9.042969zm0 0" fill="#3762cc"/><path d="m178.265625 426.09375 18.972656 5.503906c3.765625 1.089844 6.300781 4.140625 6.300781 7.578125 0 2.664063-2.496093 4.824219-5.574218 4.824219h-65.890625l-4.230469-2.761719.6875-15.144531zm0 0" fill="#f9cfcf"/><path d="m197.964844 448h-65.886719c-.777344 0-1.535156-.226562-2.1875-.648438l-4.230469-2.761718c-1.1875-.777344-1.875-2.117188-1.808594-3.535156l.683594-15.144532c.097656-2.132812 1.859375-3.816406 3.996094-3.816406h49.738281c.375 0 .75.050781 1.113281.160156l18.972657 5.5c5.496093 1.589844 9.1875 6.179688 9.1875 11.421875-.003907 4.867188-4.296875 8.824219-9.578125 8.824219zm-64.699219-8h64.699219c1.023437 0 1.574218-.585938 1.574218-.824219 0-1.644531-1.371093-3.144531-3.410156-3.738281l-18.429687-5.34375h-45.347657l-.40625 9.042969zm0 0" fill="#3762cc"/><path d="m45.945312 299.058594h71.902344v17.726562l-10.683594 109.308594h-49.734374zm0 0" fill="#e0ebfc"/><path d="m189.746094 299.058594h-71.898438v17.726562l10.683594 109.308594h49.734375zm0 0" fill="#e0ebfc"/><path d="m107.164062 430.09375h-49.734374c-2.070313 0-3.796876-1.578125-3.984376-3.640625l-11.484374-127.035156c-.097657-1.121094.273437-2.226563 1.03125-3.054688.757812-.832031 1.832031-1.304687 2.957031-1.304687h71.898437c2.207032 0 4 1.792968 4 4v17.726562c0 .128906-.003906.257813-.019531.386719l-10.683594 109.308594c-.199219 2.050781-1.921875 3.613281-3.980469 3.613281zm-46.082031-8h42.453125l10.3125-105.503906v-13.53125h-63.523437zm0 0" fill="#3762cc"/><path d="m178.265625 430.09375h-49.734375c-2.058594 0-3.785156-1.5625-3.980469-3.613281l-10.683593-109.308594c-.015626-.128906-.019532-.257813-.019532-.386719v-17.726562c0-2.207032 1.789063-4 4-4h71.898438c1.125 0 2.195312.472656 2.953125 1.304687.757812.828125 1.128906 1.9375 1.03125 3.054688l-11.480469 127.035156c-.1875 2.0625-1.914062 3.640625-3.984375 3.640625zm-46.105469-8h42.453125l10.757813-119.035156h-63.523438v13.53125zm0 0" fill="#3762cc"/><path d="m43.914062 293.207031h-35.332031l-4.085937 21.640625c-.105469.546875-.09375 1.113282.035156 1.660156l2.964844 12.621094c.636718 2.714844 3.058594 4.628906 5.84375 4.628906h21.117187c3.085938 0 5.667969-2.335937 5.972657-5.40625zm0 0" fill="#f9cfcf"/><path d="m34.457031 337.757812h-21.121093c-4.660157 0-8.667969-3.171874-9.734376-7.710937l-2.964843-12.625c-.257813-1.101563-.28125-2.210937-.074219-3.3125l4.089844-21.640625c.359375-1.890625 2.007812-3.257812 3.929687-3.257812h35.332031c1.128907 0 2.210938.476562 2.964844 1.3125.757813.839843 1.128906 1.957031 1.015625 3.082031l-3.488281 35.140625c-.507812 5.136718-4.789062 9.011718-9.949219 9.011718zm-22.558593-40.550781-3.472657 18.382813 2.964844 12.625c.210937.90625 1.011719 1.542968 1.945313 1.542968h21.121093c1.035157 0 1.890625-.777343 1.992188-1.800781l3.050781-30.75zm0 0" fill="#3762cc"/><path d="m192.757812 297.722656h35.332032l4.089844 21.640625c.101562.546875.089843 1.113281-.039063 1.65625l-2.964844 12.625c-.636719 2.710938-3.054687 4.628907-5.84375 4.628907h-21.117187c-3.082032 0-5.664063-2.339844-5.96875-5.410157zm0 0" fill="#f9cfcf"/><path d="m223.335938 342.273438h-21.117188c-5.164062 0-9.441406-3.878907-9.949219-9.015626l-3.492187-35.140624c-.113282-1.125.257812-2.242188 1.015625-3.082032.757812-.835937 1.835937-1.3125 2.964843-1.3125h35.332032c1.921875 0 3.574218 1.367188 3.929687 3.257813l4.089844 21.640625c.207031 1.097656.183594 2.210937-.070313 3.308594l-2.964843 12.625c-1.066407 4.546874-5.070313 7.71875-9.738281 7.71875zm-26.160157-40.554688 3.054688 30.75c.101562 1.027344.957031 1.800781 1.988281 1.800781h21.117188c.9375 0 1.734374-.632812 1.949218-1.542969l2.964844-12.621093-3.472656-18.386719zm0 0" fill="#3762cc"/><path d="m201.082031 299.058594v-119.402344c0-18.765625-16.796875-33.980469-37.519531-33.980469h-91.78125c-20.722656 0-37.515625 15.210938-37.515625 33.976563v130.527344c0 4.316406 3.863281 7.8125 8.628906 7.8125h149.558594c4.765625 0 8.632813-3.5 8.632813-7.8125v-11.121094zm0 0" fill="#a4c9ff"/><path d="m155.539062 441.347656h-76c-4.417968 0-8-3.582031-8-8v-20c0-4.417968 3.582032-8 8-8h76c4.417969 0 8 3.582032 8 8v20c0 4.417969-3.582031 8-8 8zm0 0" fill="#f9a7a7"/><path d="m201.082031 179.65625v118.066406h26.972657l-5.539063-47.636718c-3.121094-26.839844-10.660156-53.152344-22.386719-78.140626h-.054687c.636719 2.480469 1.007812 5.050782 1.007812 7.710938zm0 0" fill="#a4c9ff"/><path d="m34.265625 179.652344c0-3.371094.558594-6.617188 1.566406-9.691406-11.058593 24.234374-18.242187 49.671874-21.257812 75.609374l-5.542969 47.636719h25.230469v-113.554687zm0 0" fill="#a4c9ff"/><path d="m192.453125 321.996094h-149.558594c-6.964843 0-12.628906-5.300782-12.628906-11.816406v-130.527344c0-20.941406 18.625-37.976563 41.519531-37.976563h91.78125c22.894532 0 41.519532 17.039063 41.519532 37.980469v130.523438c-.003907 6.515624-5.667969 11.816406-12.632813 11.816406zm-120.671875-172.320313c-18.480469 0-33.519531 13.449219-33.519531 29.976563v130.527344c0 2.105468 2.078125 3.816406 4.628906 3.816406h149.558594c2.550781 0 4.628906-1.710938 4.628906-3.816406v-130.523438c0-16.53125-15.035156-29.980469-33.519531-29.980469zm0 0" fill="#3762cc"/><path d="m228.054688 301.71875h-26.972657c-2.207031 0-4-1.789062-4-4v-118.0625c0-2.179688-.292969-4.4375-.878906-6.71875-.308594-1.199219-.042969-2.46875.710937-3.449219.757813-.976562 1.925782-1.546875 3.160157-1.546875 1.550781 0 3.015625.898438 3.671875 2.300782 11.917968 25.390624 19.570312 52.101562 22.742187 79.378906l5.542969 47.636718c.128906 1.132813-.226562 2.269532-.984375 3.121094-.761719.851563-1.851563 1.339844-2.992187 1.339844zm-22.972657-8h18.480469l-5.019531-43.171875c-2.230469-19.164063-6.742188-38.039063-13.460938-56.355469zm0 0" fill="#3762cc"/><path d="m34.261719 297.207031h-25.230469c-1.140625 0-2.226562-.488281-2.988281-1.339843-.757813-.851563-1.117188-1.988282-.984375-3.125l5.542968-47.632813c3.054688-26.265625 10.320313-52.105469 21.59375-76.808594.878907-1.929687 3.113282-2.839843 5.097657-2.0625 1.976562.773438 3.003906 2.957031 2.34375 4.972657-.910157 2.769531-1.371094 5.609374-1.371094 8.445312v113.550781c-.003906 2.207031-1.792969 4-4.003906 4zm-20.738281-8h16.738281v-94.519531c-5.769531 16.78125-9.695313 33.96875-11.714844 51.347656zm0 0" fill="#3762cc"/><path d="m131.648438 157.414062h-27.847657c-5.984375 0-10.835937-4.847656-10.835937-10.832031v-32.105469h49.519531v32.105469c0 5.984375-4.851563 10.832031-10.835937 10.832031zm0 0" fill="#f9cfcf"/><path d="m75.464844 104.183594h-5.335938c-7.628906 0-13.8125-6.183594-13.8125-13.8125v-34.59375c0-7.628906 6.183594-13.8125 13.8125-13.8125h5.335938c7.628906 0 13.8125 6.183594 13.8125 13.8125v34.59375c0 7.628906-6.183594 13.8125-13.8125 13.8125zm0 0" fill="#4671c6"/><path d="m75.464844 108.183594h-5.335938c-9.824218 0-17.8125-7.988282-17.8125-17.8125v-34.59375c0-9.820313 7.988282-17.8125 17.8125-17.8125h5.335938c9.820312 0 17.8125 7.992187 17.8125 17.8125v34.59375c0 9.824218-7.992188 17.8125-17.8125 17.8125zm-5.335938-62.21875c-5.410156 0-9.8125 4.402344-9.8125 9.8125v34.59375c0 5.410156 4.402344 9.8125 9.8125 9.8125h5.335938c5.410156 0 9.8125-4.402344 9.8125-9.8125v-34.59375c0-5.410156-4.402344-9.8125-9.8125-9.8125zm0 0" fill="#3762cc"/><path d="m169.554688 104.558594h-5.335938c-7.625 0-13.8125-6.183594-13.8125-13.8125v-34.59375c0-7.628906 6.1875-13.8125 13.8125-13.8125h5.335938c7.628906 0 13.8125 6.183594 13.8125 13.8125v34.59375c0 7.628906-6.183594 13.8125-13.8125 13.8125zm0 0" fill="#4671c6"/><path d="m169.554688 108.558594h-5.335938c-9.820312 0-17.8125-7.988282-17.8125-17.8125v-34.59375c0-9.824219 7.992188-17.8125 17.8125-17.8125h5.335938c9.824218 0 17.8125 7.988281 17.8125 17.8125v34.59375c0 9.824218-7.988282 17.8125-17.8125 17.8125zm-5.335938-62.21875c-5.410156 0-9.8125 4.402344-9.8125 9.8125v34.59375c0 5.410156 4.402344 9.8125 9.8125 9.8125h5.335938c5.410156 0 9.8125-4.402344 9.8125-9.8125v-34.59375c0-5.410156-4.402344-9.8125-9.8125-9.8125zm0 0" fill="#3762cc"/><path d="m172.878906 76.09375c-.109375 0-.21875.011719-.332031.011719v-4.425781c0-25.886719-23.539063-46.875-52.578125-46.875-29.035156 0-52.578125 20.988281-52.578125 46.875v4.425781c-.109375 0-.21875-.011719-.332031-.011719-8.855469 0-16.039063 6.398438-16.039063 14.296875s7.183594 14.300781 16.039063 14.300781c.582031 0 1.15625-.03125 1.722656-.082031 5.425781 20.734375 26.277344 36.1875 51.1875 36.1875 24.914062 0 45.765625-15.453125 51.1875-36.1875.566406.050781 1.140625.082031 1.722656.082031 8.859375 0 16.039063-6.402344 16.039063-14.300781.003906-7.898437-7.179688-14.296875-16.039063-14.296875zm0 0" fill="#f9cfcf"/><path d="m119.972656 144.796875c-25.207031 0-47.003906-14.707031-54.15625-36.140625-10.472656-.589844-18.792968-8.554688-18.792968-18.265625 0-8.945313 7.066406-16.414063 16.371093-17.992187v-.71875c0-28.050782 25.382813-50.875 56.578125-50.875 31.195313 0 56.578125 22.824218 56.578125 50.875v.71875c9.304688 1.578124 16.375 9.046874 16.375 17.992187 0 9.710937-8.324219 17.675781-18.796875 18.265625-7.15625 21.433594-28.949218 36.140625-54.15625 36.140625zm-51.1875-44.1875c1.800782 0 3.402344 1.210937 3.867188 2.988281 5.117187 19.542969 24.574218 33.199219 47.320312 33.199219s42.203125-13.652344 47.316406-33.199219c.496094-1.894531 2.277344-3.144531 4.242188-2.972656.441406.042969.890625.066406 1.347656.066406 6.640625 0 12.042969-4.621094 12.042969-10.300781 0-5.664063-5.375-10.277344-11.992187-10.296875-.144532.007812-.324219.015625-.378907.015625-1.050781 0-2.054687-.414063-2.804687-1.148437-.765625-.75-1.195313-1.78125-1.195313-2.851563v-4.429687c0-23.640626-21.792969-42.875-48.578125-42.875-26.78125 0-48.578125 19.234374-48.578125 42.875v4.429687c0 1.070313-.429687 2.101563-1.195312 2.851563s-1.847657 1.101562-2.875 1.148437c-.050781-.003906-.257813-.011719-.3125-.015625-6.585938 0-11.988281 4.621094-11.988281 10.296875 0 5.679687 5.402343 10.300781 12.039062 10.300781.460938 0 .90625-.027344 1.351562-.066406.121094-.011719.246094-.015625.371094-.015625zm0 0" fill="#3762cc"/><path d="m154.050781 64.378906h29.304688c1.941406 0 3.511719-1.574218 3.511719-3.511718v-16.488282c0-22.300781-18.078126-40.378906-40.378907-40.378906h-4.335937c-5.820313 0-10.535156 4.714844-10.535156 10.535156v27.40625c0 12.394532 10.042968 22.4375 22.433593 22.4375zm0 0" fill="#4671c6"/><path d="m100.160156 64.378906h-50.460937c-1.949219 0-3.523438-1.578125-3.523438-3.527344v-13.015624c0-24.210938 19.625-43.835938 43.835938-43.835938h31.191406c5.808594 0 10.519531 4.710938 10.519531 10.519531v18.296875c0 17.429688-14.128906 31.5625-31.5625 31.5625zm0 0" fill="#4671c6"/><g fill="#3762cc"><path d="m183.355469 68.378906h-29.304688c-14.574219 0-26.433593-11.859375-26.433593-26.4375v-27.40625c0-8.015625 6.519531-14.535156 14.53125-14.535156h4.335937c24.472656 0 44.382813 19.90625 44.382813 44.378906v16.488282c0 4.144531-3.371094 7.511718-7.511719 7.511718zm-41.207031-60.378906c-3.601563 0-6.53125 2.933594-6.53125 6.535156v27.40625c0 10.167969 8.269531 18.4375 18.433593 18.4375h28.816407v-15.996094c0-20.0625-16.320313-36.378906-36.382813-36.378906h-4.335937zm0 0"/><path d="m100.160156 68.378906h-50.460937c-4.152344 0-7.527344-3.375-7.527344-7.523437v-13.019531c0-26.375 21.460937-47.835938 47.839844-47.835938h31.191406c8.007813 0 14.519531 6.515625 14.519531 14.523438v18.292968c0 19.609375-15.953125 35.5625-35.5625 35.5625zm-49.984375-8h49.984375c15.199219 0 27.5625-12.363281 27.5625-27.5625v-18.292968c0-3.59375-2.925781-6.519532-6.519531-6.519532h-31.191406c-21.96875 0-39.839844 17.871094-39.839844 39.835938v12.539062zm0 0"/><path d="m94.871094 91.277344h-.082032c-2.625 0-4.753906-2.128906-4.753906-4.753906v-7.824219c0-2.625 2.128906-4.75 4.753906-4.75h.082032c2.625 0 4.753906 2.125 4.753906 4.75v7.824219c0 2.625-2.128906 4.753906-4.753906 4.753906zm0 0"/><path d="m144.652344 91.277344h-.082032c-2.625 0-4.753906-2.128906-4.753906-4.753906v-7.824219c0-2.625 2.128906-4.75 4.753906-4.75h.082032c2.625 0 4.753906 2.125 4.753906 4.75v7.824219c0 2.625-2.128906 4.753906-4.753906 4.753906zm0 0"/><path d="m129.105469 117.929688c-1.109375 0-2-.894532-2-2 0-1.929688-3.035157-4.078126-7.386719-4.078126-4.347656 0-7.382812 2.148438-7.382812 4.078126 0 1.105468-.890626 2-2 2-1.105469 0-2-.894532-2-2 0-4.53125 5-8.078126 11.382812-8.078126 6.386719 0 11.386719 3.546876 11.386719 8.078126 0 1.105468-.894531 2-2 2zm0 0"/><path d="m98.867188 123.847656c-.175782 0-.351563-.023437-.53125-.070312-1.0625-.292969-1.695313-1.386719-1.402344-2.457032 2.179687-7.996093-5.605469-13.601562-5.9375-13.835937-.898438-.636719-1.117188-1.882813-.484375-2.785156.636719-.902344 1.875-1.125 2.78125-.492188.425781.296875 10.425781 7.429688 7.5 18.164063-.242188.894531-1.046875 1.476562-1.925781 1.476562zm0 0"/><path d="m140.597656 123.847656c-.878906 0-1.6875-.582031-1.929687-1.472656-2.921875-10.734375 7.078125-17.867188 7.507812-18.164062.902344-.632813 2.148438-.410157 2.78125.492187.632813.902344.414063 2.148437-.488281 2.78125-.332031.234375-8.117188 5.839844-5.9375 13.839844.289062 1.066406-.339844 2.164062-1.40625 2.457031-.175781.042969-.351562.066406-.527344.066406zm0 0"/><path d="m155.539062 445.347656h-76c-6.617187 0-12-5.382812-12-12v-20c0-6.617187 5.382813-12 12-12h76c6.617188 0 12 5.382813 12 12v20c0 6.617188-5.382812 12-12 12zm-76-36c-2.207031 0-4 1.792969-4 4v20c0 2.207032 1.792969 4 4 4h76c2.207032 0 4-1.792968 4-4v-20c0-2.207031-1.792968-4-4-4zm0 0"/></g></svg>