<svg height="512" viewBox="0 0 60 60" width="512" xmlns="http://www.w3.org/2000/svg"><g id="Page-1" fill="none" fill-rule="evenodd"><g id="002---Fertilisation-Petridish" fill-rule="nonzero"><circle id="Oval" cx="30" cy="30" fill="#e8edfc" r="29"/><path id="Shape" d="m30 1c-.5033333 0-1.0033333.01266667-1.5.038 15.4192225.79012792 27.5158989 13.5225465 27.5158989 28.962s-12.0966764 28.1718721-27.5158989 28.962c.4973333.0253333.9973333.038 1.5.038 16.0162576-.0000002 28.9999996-12.9837424 28.9999996-29s-12.983742-28.99999976-28.9999996-29z" fill="#cad9fc"/><circle id="Oval" cx="30" cy="30" fill="#cad9fc" r="24"/><path id="Shape" d="m30 6c-.5 0-1 .021-1.5.051 12.6273361.81636717 22.4516137 11.296302 22.4516137 23.95s-9.8242776 23.1336328-22.4516137 23.95c.5.03 1 .051 1.5.051 13.2553861-.0000003 24.0009995-10.7456139 24.0009995-24.001s-10.7456134-24.00099972-24.0009995-24.001z" fill="#a4c2f7"/><path id="Shape" d="m48 29c.0000352 3.1542637-1.651236 6.0783443-4.352377 7.7072141-2.7011409 1.6288698-6.0578873 1.7247756-8.847623.2527859.6019956-1.0957888.4626088-2.4498323-.35-3.4-.9495722-.8139967-2.3045115-.9534757-3.4-.35-1.7556362-3.3084394-1.2787923-7.3583414 1.1972642-10.1685325 2.4760565-2.8101912 6.433685-3.7931774 9.9368517-2.4680912 3.5031666 1.3250862 5.8195048 4.6812243 5.8158841 8.4266237z" fill="#e8edfc"/><path id="Shape" d="m39 20c-.5028835.0032224-1.0046224.0483789-1.5.135 4.3264217.7258421 7.4969977 4.468586 7.5016996 8.8554698s-3.1578438 8.1364155-7.4826996 8.8715302c3.3457067.5614148 6.7226242-.8077292 8.7326897-3.5405988 2.0100656-2.7328696 2.3111621-6.3643249.7786338-9.3909232-1.5325282-3.0265983-4.6378418-4.9332064-8.0303235-4.930478z" fill="#cad9fc"/><ellipse id="Oval" cx="16" cy="27" fill="#e8edfc" rx="3" ry="4"/><path id="Shape" d="m34.8 36.96c-.2495251.5804898-.6095386 1.1069247-1.06 1.55-1.56 1.57-3.78 1.88-4.95.71s-.86-3.39.71-4.95c.4430753-.4504614.9695102-.8104749 1.55-1.06 1.0954885-.6034757 2.4504278-.4639967 3.4.35.8126088.9501677.9519956 2.3042112.35 3.4z" fill="#e8edfc"/><path id="Shape" d="m24.02 20.49c-2.05.84-4.21.29-4.85-1.25s.52-3.45 2.56-4.3 4.21-.28 4.84 1.25-.51 3.46-2.55 4.3z" fill="#e8edfc"/><path id="Shape" d="m1.154 21.832 1.924.544-.478 1.869c-.119.632-.2 1.272-.3 1.907l-.147.954-.051.965-.102 1.929h-2l.1-2.066.06-1.034.154-1.023c.109-.681.2-1.366.325-2.043z" fill="#fff"/><path id="Shape" d="m30 59c.5033333 0 1.0033333-.0126667 1.5-.038-15.4192225-.7901279-27.51589893-13.5225465-27.51589893-28.962s12.09667643-28.17187208 27.51589893-28.962c-.4966667-.02533333-.9966667-.038-1.5-.038-16.0162576.00000024-28.99999957 12.9837424-28.99999957 29s12.98374197 28.9999998 28.99999957 29z" fill="#fff"/><g fill="#428dff"><path id="Shape" d="m1.324 27.01c-.55228473.0027614-1.00223852-.4427153-1.00499994-.995-.00276143-.5522847.44271521-1.0022385.99499994-1.005h.01c.55228475 0 1 .4477153 1 1s-.44771525 1-1 1z"/><path id="Shape" d="m30 0c-9.8959947.04206445-19.145075 4.92413561-24.763 13.071-1.8107047 2.688887-3.18844792 5.6451467-4.083 8.761-.13519099.5258673.17394577 1.0635317.69642933 1.211261.52248356.1477292 1.0673877-.1484601 1.22757067-.667261.83547861-2.9073111 2.12068667-5.6660039 3.809-8.176 1.72063833-2.4892317 3.8282452-4.68731412 6.243-6.511 10.3661019-7.81841359 24.7491845-7.47702879 34.7326796.82438578 9.9834951 8.30141452 12.9432245 22.38081832 7.1472393 33.99934722-5.7959853 11.6185289-18.8242008 17.7222334-31.4609079 14.7394003-12.6367071-2.9828332-21.56032622-14.2681612-21.549011-27.2521333 0-.5522847-.44771525-1-1-1s-1 .4477153-1 1c0 16.5685425 13.4314575 30 30 30s30-13.4314575 30-30-13.4314575-30-30-30z"/><path id="Shape" d="m10.253 14.671c-7.71797792 9.9525141-6.82749609 24.0922794 2.0781122 32.9978878 8.9056084 8.9056083 23.0453737 9.7960901 32.9978878 2.0781122.4360288-.339379.5143789-.9679712.175-1.404-.339379-.4360288-.9679712-.514379-1.404-.175-9.1563941 7.093719-22.1592691 6.2717698-30.3495194-1.9184806-8.19025043-8.1902503-9.01219962-21.1931253-1.9184806-30.3495194.3391028-.4360288.2605288-1.0643972-.1755-1.4035s-1.0643972-.2605288-1.4035.1755z"/><path id="Shape" d="m48.957 45.715c.3088077.0002142.6003921-.1422561.79-.386 7.7179779-9.9525141 6.8274961-24.0922794-2.0781122-32.9978878-8.9056084-8.90560829-23.0453737-9.79609012-32.9978878-2.0781122-.4360288.339379-.5143789.9679712-.175 1.404.339379.4360288.9679712.514379 1.404.175 9.1563941-7.09371902 22.1592691-6.27176983 30.3495194 1.9184806 8.1902504 8.1902503 9.0121996 21.1931253 1.9184806 30.3495194-.2344817.3014297-.2768124.7100888-.109093 1.0531802.1677194.3430915.516201.5607029.898093.5608198z"/><path id="Shape" d="m12 27c-.0673169 1.8001956.8031429 3.5066753 2.3 4.509-.203217.41321-.3060051.8685615-.3 1.329.0213373 1.0128093.5101762 1.9587348 1.324 2.562.481.443.676.64.676 1.092s-.2.659-.677 1.1c-.8300915.5925512-1.3227921 1.5496134-1.3227921 2.5695s.4927006 1.9769488 1.3227921 2.5695c.2629475.2418688.6349564.325084.9758947.2182992s.5990092-.3873464.677-.736-.0359472-.7124304-.2988947-.9542992c-.482-.443-.677-.64-.677-1.093s.2-.659.678-1.1c.8300915-.5925512 1.3227921-1.5496134 1.3227921-2.5695s-.4927006-1.9769488-1.3227921-2.5695c-.478-.439-.678-.636-.678-1.089.0030603-.3559321.1739409-.6895385.461-.9 1.986-.286 3.539-2.378 3.539-4.938 0-2.757-1.794-5-4-5s-4 2.243-4 5zm4-3c1.084 0 2 1.374 2 3s-.916 3-2 3-2-1.374-2-3 .916-3 2-3z"/><path id="Shape" d="m28.437 40.213c.6327645.4709944 1.4022185.7220942 2.191.715h.007c1.4460968-.0474177 2.8154404-.6620417 3.812-1.711.2929941-.295057.5553342-.6190454.783-.967 4.072629 1.6554596 8.7488082.4548667 11.5202191-2.9577767 2.771411-3.4126434 2.9870193-8.2356702.5311719-11.8819926s-7.0062453-5.2593797-11.2103449-3.9739224-7.0743122 5.1674612-7.0710461 9.5636917c.00029 1.2978465.2572178 2.5828256.756 3.781-.3457117.2270718-.6676703.488391-.961.78-1.0501741.9967162-1.6655772 2.3669133-1.713 3.814.0035916.3401346.0516662.6783377.143 1.006-.4344159.149001-.8279157.3976353-1.149.726-.7022696.7315175-1.0264448 1.7468726-.878 2.75.028.653.026.93-.294 1.25s-.6.329-1.259.3c-1.0054009-.1676057-2.0298526.160674-2.7505893.8814107s-1.0490164 1.7451884-.8814107 2.7505893c.0220029.5362105.4633385.9594512 1 .959h.042c.2651172-.0109119.5150286-.1267433.6947083-.3219903.1796798-.195247.2743952-.4539004.2632917-.7190097-.028-.653-.026-.93.294-1.25s.606-.326 1.257-.3c1.0065394.1688751 2.0326248-.1592602 2.7544028-.8808396.7217779-.7215795 1.0501954-1.7475746.8815972-2.7541604-.027-.636-.025-.931.294-1.251.2494917-.2434635.5978999-.3572596.943-.308zm10.563-19.213c3.2295223-.0082667 6.1472839 1.9260847 7.3971143 4.9039709 1.2498304 2.9778863.5865786 6.4152029-1.6814772 8.7142909-2.2680557 2.2990881-5.6960421 3.0089875-8.6906371 1.7997382.399392-1.2579396.0638963-2.6336055-.8697784-3.5664386-.9336748-.932833-2.3096427-1.2670877-3.5672216-.8665614-.388633-.9471797-.5883779-1.961191-.588-2.985.0049599-4.4162219 3.5837781-7.9950401 8-8zm-8.792 13.977c.3563868-.3630055.7803494-.6527813 1.248-.853.3666262-.1705129.7647448-.2628056 1.169-.271.4130106-.0169062.8156097.1321779 1.118.414.5067067.6616956.5635885 1.563904.144 2.284l-.01.023c-.2005814.4607155-.4877836.8786185-.846 1.231-.625389.6696289-1.4851739 1.0719366-2.4 1.123-.4203527.0344398-.8345519-.1179157-1.1323965-.4165309-.2978447-.2986153-.4491293-.7132068-.4136035-1.1334691.0508103-.9151783.4531386-1.7753655 1.123-2.401z"/><path id="Shape" d="m24.4 21.416c1.692649-.6245446 2.9392816-2.0836198 3.292-3.853.065.005.124.018.191.018.3961208-.0027682.7877289-.0843532 1.152-.24.9291525-.4047642 1.6182883-1.2172501 1.866-2.2.226-.613.334-.869.752-1.041s.685-.07 1.277.206c.8644781.5410684 1.9370382.6313573 2.8798046.242424.9427663-.3889333 1.639678-1.2092084 1.8711954-2.202424.1905382-.5185954-.0754046-1.0934617-.594-1.284-.5185954-.1905382-1.0934617.0754046-1.284.594-.225.614-.333.869-.752 1.042s-.683.071-1.276-.2c-.8642879-.5420177-1.9372716-.6328219-2.8803548-.2437578-.9430833.389064-1.6399321 1.2100032-1.8706452 2.2037578-.226.613-.334.868-.752 1.041-.3284111.1287392-.698029.0973217-1-.085-1.025-1.725-3.552-2.365-5.917-1.387-1.1424432.4510852-2.1096669 1.2573971-2.759 2.3-.6289385.9843922-.7543217 2.2085478-.338 3.3.7109823 1.4679103 2.2404029 2.3587543 3.868 2.253.7809582-.0053484 1.553377-.1629572 2.274-.464zm-4.3-2.554c-.1668531-.5107392-.0894041-1.0698479.21-1.516.4298987-.6692384 1.0597089-1.1860327 1.8-1.477 1.5-.619 3.124-.3 3.537.705s-.508 2.373-2.012 2.993-3.124.297-3.535-.705z"/><path id="Shape" d="m34 30c.5522847 0 1-.4477153 1-1 0-2.209139 1.790861-4 4-4 .5522847 0 1-.4477153 1-1s-.4477153-1-1-1c-3.3123376.0033074-5.9966926 2.6876624-6 6 0 .2652165.1053568.5195704.2928932.7071068s.4418903.2928932.7071068.2928932z"/></g></g></g></svg>