<?xml version="1.0"?>
<svg xmlns="http://www.w3.org/2000/svg" id="Layer_1" enable-background="new 0 0 256 256" height="512px" viewBox="0 0 256 256" width="512px" class=""><g><link xmlns="" type="text/css" id="dark-mode" rel="stylesheet"/><style xmlns="" type="text/css" id="dark-mode-custom-style"/><path d="m84.425 25.079c-.724 1.446-1.472 2.869-1.56 3.035 0 0 0 .001-.001.001-2.653 4.111-5.699 6.784-5.699 6.784s0-.002 0-.002c-4.265 4.023-9.633 6.562-15.344 7.038l-.002.007c-1.263.3-.756 1.654-.756 1.654 1.088 1.907 1.479 3.017 1.479 3.017 2.117 5.079 2.854 10.948 1.788 16.959-1.298 7.308-5.025 13.498-10.069 17.738l.007.004c-.999 1.662.47 2.25.47 2.25l-.001.005c9.149 4.054 15.196 13.702 15.439 24.639l.004-.004c.751 1.529 2.044.556 2.044.556l.002.006c5.316-3.75 11.806-5.469 18.398-4.294 5.457.973 10.166 3.784 13.725 7.76l.004-.003s.792.765 2.046 2.607l.002-.002s1.171.944 2.085-.377l.009.01c3.357-8.649 10.315-14.999 18.437-17.147.921-.215 1.857-.371 2.802-.475l-.001-.005s1.493-.324 1.203-2.076c-.067-.12-.134-.242-.201-.365-.005-.003-.01-.007-.015-.011-.035-.066-.064-.136-.098-.202-.257-.484-.499-.975-.68-1.408h.001c-.474-1.037-.711-1.729-.711-1.729l.001-.001c-.315-.849.122-1.835.937-2.113l11.82-4.041 2.324-13.464-9.842-7.988c-.679-.551-.764-1.643-.179-2.354.719-.874 1.49-1.692 2.294-2.465 0 0-.005-.006-.005-.006s2.276-2.725-.337-4.394c-7.277-4.009-12.251-11.723-13.368-20.618h-.008c-.644-3.483-4.168-1.837-4.168-1.837-4.783 2.624-10.287 3.701-15.864 2.707-6.327-1.128-11.656-4.719-15.345-9.742-.815-1.115-2.42-.946-3.067.346z" fill="#ffea92" data-original="#FFEA92" class="" style="fill:#3762CC" data-old_color="#ffea92"/><path d="m196.201 8h-66.722c-3.675 0-7.062 1.989-8.851 5.199l-31.654 56.765c-1.056 1.894-1.477 4.077-1.2 6.228l18.036 140.242c.282 2.192-.909 4.31-2.93 5.207l-3.729 1.656c-.149.057-.298.114-.448.171l-39.027 12.542c-1.834.589-3.078 2.296-3.078 4.223v3.331c0 2.45 1.986 4.436 4.436 4.436h11.825 30.141 17 7.592 6.14c2.756 0 5.128-1.945 5.668-4.647 1.223-6.12.758-12.457-1.346-18.332l-2.381-6.648-.244-2.25c-.057-.529-.073-1.063-.046-1.595l5.737-115.402c.128-2.57 1.229-4.996 3.079-6.784l1.96-1.894 51.6-52.258c1.053-1.067 1.644-2.505 1.644-4.004v-22.985c-.001-1.768-1.434-3.201-3.202-3.201z" fill="#f9cfcf" data-original="#F9CFCF" class=""/><path d="m105.373 61.126c2.35 1.084 3.518 3.755 2.716 6.216-.852 2.616-1.084 5.395-.676 8.116l1.984 13.238c.418 2.788-1.503 5.386-4.291 5.804l-1.313.197c-2.347.352-4.626-.96-5.501-3.166l-2.229-5.619c-1.947-4.908-2.093-10.348-.413-15.354l1.179-3.514c.093-.276.209-.544.347-.8l1.568-2.907c1.279-2.371 4.182-3.339 6.629-2.211z" fill="#f9a7a7" data-original="#F9A7A7" class=""/><path d="m132.032 107.798-.094-6.774c-.022-1.566-.788-3.029-2.063-3.938-.873-.622-1.925-.943-2.997-.912l-18.088.516c-.475.014-.945.096-1.396.244l-1.439.473c-1.775.584-3.067 2.123-3.333 3.973l-.711 4.932c-.138.958.009 1.935.424 2.809l2.974 6.275c.185.391.318.804.395 1.23l.888 4.898c.033.181.055.364.068.548l6.415 95.535c.142 2.118 1.902 3.763 4.025 3.763h8.119c2.231 0 4.038-1.811 4.034-4.042l-.199-96.453.173-4.5c.023-.587.15-1.166.377-1.708l2.05-4.905c.258-.621.387-1.29.378-1.964z" fill="#e0ebfc" data-original="#E0EBFC" class="active-path" style="fill:#A4C9FF" data-old_color="#e0ebfc"/><path d="m130.734 230.005-1.191-1.805c-.895-1.358-2.599-2.2-4.449-2.2h-9.487c-1.042 0-2.076.152-3.055.449l-37.594 11.406-.493.118c-.09.022-.18.047-.267.075l-2.921.963c-.958.316-1.574 1.013-1.574 1.783 0 1.08 1.195 1.955 2.669 1.955h49.944c4.796 0 8.683-2.848 8.683-6.361v-5.549c.001-.299-.1-.579-.265-.834z" fill="#e0ebfc" data-original="#E0EBFC" class="active-path" style="fill:#A4C9FF" data-old_color="#e0ebfc"/><g fill="#3762cc"><path d="m133.732 250h-72.699c-3.548 0-6.436-2.887-6.436-6.436v-3.331c0-2.806 1.795-5.268 4.466-6.127l39.326-12.658 3.679-1.634c1.221-.543 1.928-1.799 1.757-3.125l-18.035-140.242c-.329-2.558.182-5.206 1.438-7.457l31.654-56.765c2.14-3.839 6.201-6.225 10.597-6.225h66.722c2.868 0 5.201 2.333 5.201 5.201v22.984c0 2.038-.789 3.959-2.22 5.409l-51.601 52.259-1.994 1.927c-1.49 1.44-2.368 3.375-2.471 5.445l-5.737 115.402c-.021.425-.009.855.037 1.28l.218 2.014 2.301 6.424c2.227 6.217 2.719 12.925 1.425 19.398-.723 3.626-3.932 6.257-7.628 6.257zm-4.253-240c-2.947 0-5.669 1.599-7.104 4.173l-31.654 56.765c-.841 1.509-1.184 3.284-.963 4.999l18.036 140.242c.392 3.046-1.294 6.044-4.101 7.291l-3.73 1.656c-.034.015-.068.029-.103.042l-.448.17c-.032.012-.064.023-.097.034l-39.027 12.542c-1.011.325-1.69 1.257-1.69 2.318v3.331c0 1.343 1.093 2.436 2.436 2.436h72.699c1.796 0 3.355-1.278 3.707-3.039 1.152-5.763.713-11.733-1.268-17.266l-2.381-6.647c-.053-.148-.088-.303-.105-.46l-.244-2.25c-.068-.633-.087-1.274-.056-1.908l5.737-115.403c.154-3.088 1.463-5.973 3.687-8.122l1.96-1.895 51.566-52.225c.688-.697 1.067-1.62 1.067-2.6v-22.983c0-.662-.539-1.201-1.201-1.201z" data-original="#3762CC" class="" style="fill:#3762CC"/><path d="m125.218 223.37h-8.119c-3.164 0-5.808-2.473-6.02-5.63l-6.415-95.535c-.007-.11-.021-.219-.04-.325l-.888-4.898c-.046-.252-.125-.497-.234-.728l-2.975-6.277c-.585-1.233-.791-2.6-.596-3.951l.711-4.932c.377-2.619 2.174-4.761 4.688-5.587l1.44-.474c.633-.208 1.294-.323 1.963-.343l18.088-.517c1.501-.048 2.995.413 4.215 1.282 1.787 1.275 2.872 3.346 2.903 5.539l.093 6.775c.014.953-.167 1.884-.535 2.764l-2.05 4.905c-.135.322-.21.663-.223 1.012l-.173 4.501.201 96.372c.003 1.614-.623 3.132-1.763 4.274s-2.657 1.773-4.271 1.773zm1.797-125.199c-.027 0-.054 0-.081.001l-18.087.517c-.282.009-.562.057-.829.145l-1.44.474c-1.061.349-1.819 1.252-1.978 2.357l-.711 4.932c-.082.57.005 1.147.251 1.667l2.974 6.276c.26.548.448 1.13.556 1.729l.888 4.898c.046.255.079.512.096.772l6.415 95.533c.071 1.063.962 1.897 2.029 1.897h8.119c.544 0 1.055-.212 1.439-.597.385-.386.596-.897.595-1.441l-.199-96.453.175-4.581c.032-.828.21-1.637.53-2.401l2.05-4.905c.155-.371.231-.763.225-1.164 0-.001 0-.001 0-.002l-.093-6.774c-.013-.926-.471-1.8-1.225-2.338-.493-.351-1.093-.542-1.699-.542z" data-original="#3762CC" class="" style="fill:#3762CC"/><path d="m122.317 244.75h-49.944c-2.618 0-4.669-1.737-4.669-3.955 0-1.647 1.157-3.093 2.948-3.683l2.92-.963c.147-.048.288-.088.43-.121l.432-.104 37.537-11.39c1.172-.355 2.395-.535 3.636-.535h9.487c2.513 0 4.857 1.188 6.119 3.099l1.191 1.806c.002.004.005.008.007.012.385.593.589 1.258.589 1.924v5.549c0 4.688-4.692 8.361-10.683 8.361zm-49.924-4h49.924c3.623 0 6.683-1.997 6.683-4.361v-5.38l-1.126-1.707c-.521-.791-1.613-1.302-2.78-1.302h-9.487c-.847 0-1.68.122-2.475.363l-37.593 11.407c-.038.012-.076.021-.115.031l-.609.15z" data-original="#3762CC" class="" style="fill:#3762CC"/></g><path d="m199.402 11.201c0-1.768-1.433-3.201-3.201-3.201h-21.713l-5.811 5.462-11.163 9.312-29.64 25.696c-2.346 2.034-5.316 3.271-8.421 3.317-1.53.023-2.907.918-3.463 2.339l-4.678 11.952c-.398 1.016-.544 2.113-.426 3.198l1.692 15.544c.393 3.614 3.493 6.322 7.127 6.227l7.216-.188c2.425-.063 4.643-1.38 5.86-3.479l6.952-11.989c.279-.481.445-1.02.486-1.574l.243-3.3c.15-2.042 1.104-3.941 2.652-5.281l6.86-5.938 29.98-26.503c.01-.009.018-.018.027-.027l12.636-11.173 6.785-6.094z" fill="#e0ebfc" data-original="#E0EBFC" class="active-path" style="fill:#A4C9FF" data-old_color="#e0ebfc"/><path d="m119.522 93.049c-4.539.001-8.439-3.477-8.933-8.013l-1.692-15.544c-.152-1.398.038-2.831.552-4.143l4.678-11.952c.844-2.157 2.922-3.574 5.294-3.61 2.546-.038 5.082-1.043 7.142-2.829l29.64-25.695 11.146-9.299 5.768-5.421c.372-.349.862-.543 1.371-.543h21.713c2.868 0 5.201 2.333 5.201 5.201v4.299c0 .567-.241 1.108-.664 1.488l-6.785 6.095-12.607 11.147c-.023.022-.046.044-.067.063l-29.98 26.503-6.875 5.952c-1.156 1.001-1.854 2.392-1.966 3.915l-.243 3.301c-.063.852-.323 1.692-.751 2.431l-6.953 11.988c-1.553 2.68-4.441 4.394-7.538 4.475l-7.216.188c-.078.002-.157.003-.235.003zm55.758-83.049-5.234 4.919c-.029.027-.058.054-.088.079l-11.163 9.312-29.611 25.67c-2.771 2.402-6.216 3.754-9.701 3.807-.741.011-1.381.431-1.631 1.067l-4.678 11.952c-.279.714-.383 1.492-.3 2.252l1.692 15.545c.279 2.561 2.538 4.485 5.085 4.444l7.216-.188c1.718-.045 3.32-.996 4.182-2.482l6.953-11.989c.126-.219.203-.467.222-.719l.243-3.3c.19-2.587 1.376-4.947 3.337-6.645l6.859-5.938 29.928-26.457c.019-.019.039-.036.051-.048l12.649-11.185 6.11-5.488v-3.407c0-.662-.539-1.201-1.201-1.201zm24.122 5.5h.01z" fill="#3762cc" data-original="#3762CC" class="" style="fill:#3762CC"/></g> </svg>
